<?xml version="1.0" standalone="no"?><!DOCTYPE svg PUBLIC "-//W3C//DTD SVG 1.1//EN" "http://www.w3.org/Graphics/SVG/1.1/DTD/svg11.dtd"><svg class="icon" height="512" viewBox="0 0 1024 1024" version="1.1" xmlns="http://www.w3.org/2000/svg"><path d="M787.4 846.7c-11.3 7.1-26.4 5-35.3-5.6-9.6-11.5-8-28.6 3.5-38.2 131.1-109.2 173-293.8 102-448.9-6.2-13.6-0.4-29.5 13.4-35.9 13.6-6.2 29.7-0.3 35.9 13.3 81.2 177.3 33.2 388.3-116.6 513.2-0.9 0.8-1.9 1.5-2.9 2.1m-91.7 57.8c-1 0.6-2.1 1.2-3.2 1.7-177.4 81.3-388.5 33.3-513.3-116.5-9.6-11.5-8-28.6 3.5-38.2 11.5-9.4 28.6-8 38.2 3.5 109.2 131.1 293.8 173 449 102 13.6-6.2 29.7-0.3 35.9 13.3 5.8 12.5 1.2 27-10.1 34.2m-538.9-201c-1 0.6-2.1 1.2-3.2 1.7-13.6 6.2-29.7 0.3-35.9-13.3-81.3-177.4-33.3-388.4 116.6-513.3 11.7-9.7 28.6-8 38.2 3.5 9.6 11.5 8 28.6-3.5 38.2C137.9 329.5 95.9 514.1 167 669.2c5.6 12.6 1.1 27.1-10.2 34.3m682.1-429.6c-11.3 7.1-26.5 5-35.3-5.6-109.2-131.1-293.8-173-449-101.9-13.6 6.2-29.7 0.3-35.9-13.3-6.2-13.6-0.4-29.7 13.3-35.9C509.4 36 720.4 83.9 845.2 233.7c9.6 11.5 8 28.6-3.5 38.2-0.8 0.6-1.8 1.3-2.8 2m-201 338.2c-8.9 5.6-20.7 5.7-29.9-0.7-12.3-8.6-15.3-25.4-6.7-37.7 16-22.9 22.5-50.7 18.3-78.4-2.2-14.8 8-28.6 22.8-30.9 14.8-2.2 28.6 7.9 30.8 22.8 6.3 41.4-3.5 83.1-27.4 117.5-2.2 3-4.9 5.5-7.9 7.4M547 668.6c-3.1 1.9-6.6 3.3-10.4 3.8-41.4 6.3-83.1-3.5-117.4-27.4-12.3-8.6-15.3-25.5-6.8-37.7 8.6-12.2 25.4-15.3 37.7-6.8 22.9 16 50.8 22.5 78.3 18.3 14.8-2.3 28.6 7.9 30.8 22.7 1.8 11.1-3.4 21.6-12.2 27.1M392.6 554.9c-3.1 1.9-6.6 3.3-10.4 3.9-14.8 2.2-28.6-8-30.8-22.8-6.2-41.4 3.5-83.1 27.5-117.4 8.5-12.3 25.5-15.3 37.7-6.7 12.3 8.6 15.3 25.5 6.7 37.7-16 22.9-22.5 50.7-18.3 78.3 1.7 11-3.5 21.4-12.4 27m210.3-132.5c-8.9 5.6-20.5 5.7-29.7-0.5-22.7-15.4-50.1-21.6-77.2-17.5-14.8 2.2-28.6-8-30.8-22.8-2.2-14.8 7.8-28.6 22.8-30.8 40.6-6.1 81.7 3.2 115.7 26.3 12.4 8.4 15.6 25.3 7.2 37.7-2.2 3.1-4.9 5.6-8 7.6m111.3 308c-10.7 6.7-25 5.3-34-4.2-10.3-10.8-10-28 0.9-38.3 70.8-67.6 94.2-170.4 59.8-262-5.3-14 2-29.6 15.8-34.9 14-5.3 29.7 1.8 34.9 15.8 42.2 111.9 13.5 237.7-73 320.3-1.5 1.3-2.9 2.4-4.4 3.3m-92.2 58c-1.5 1-3.2 1.8-4.9 2.4-112 42.2-237.8 13.5-320.4-73-10.3-10.8-9.9-28 0.9-38.3 11.3-10.2 28-9.9 38.4 0.9 67.6 70.8 170.4 94.3 262 59.8 14-5.3 29.7 1.8 34.9 15.8 4.6 12.2-0.2 25.7-10.9 32.4M272.9 629.9c-1.5 1-3.2 1.8-4.9 2.4-14 5.3-29.7-1.8-34.9-15.8-42.1-112-13.5-237.7 73.1-320.3 11-10.3 28-10 38.3 0.9 10.3 10.8 10 28-0.9 38.3-70.8 67.6-94.2 170.4-59.8 262 4.6 12.2-0.3 25.7-10.9 32.5m449.8-282.8c-10.7 6.7-25 5.2-34-4.2C621 272 518 248.6 426.3 283.3c-14 5.3-29.7-1.8-35-15.8-5.3-14 2.1-29.5 15.8-35 112.1-42.4 238.1-13.8 320.8 72.9 10.3 10.8 9.9 28-0.9 38.3-1.4 1.3-2.8 2.5-4.3 3.4m0 0z" fill="" /><path d="M512.6 953.9c-128.3 0-254.1-55.8-339.9-158.8-12.6-15.1-10.5-37.6 4.6-50.1 15.2-12.5 37.7-10.4 50.2 4.6 106.8 128.2 287.3 169.2 438.9 99.7 8.7-4 18.3-4.3 27.2-1 8.9 3.3 16 9.9 20 18.5 7.4 16.2 1.6 35.5-13.4 45-1.4 0.9-2.7 1.6-4.2 2.3-58.9 26.8-121.4 39.8-183.4 39.8zM200.1 753.8c-4.2 0-8.5 1.4-12 4.3-7.8 6.5-8.9 18.3-2.4 26.2C308.1 931.2 515 978.1 688.9 898.5c0.8-0.4 1.5-0.7 2.2-1.2 7.8-4.9 10.8-15 7-23.5-2.1-4.5-5.8-7.9-10.4-9.7-4.7-1.7-9.7-1.5-14.3 0.5-51.7 23.7-106.5 35.1-160.9 35.1-112.5 0-222.9-48.9-298.2-139.3-3.6-4.4-8.9-6.6-14.2-6.6z m573 105.5c-10.3 0-20.5-4.4-27.4-12.8-6.1-7.3-9-16.5-8.1-26 0.9-9.5 5.4-18 12.7-24.1C878.4 689.6 919.5 509.2 850 357.5c-8.2-18-0.5-38.7 17.5-47.2 8.7-4 18.4-4.3 27.3-1 8.9 3.3 16 9.9 20 18.5 82.8 180.8 33.9 396-118.9 523.2-1.2 1-2.5 1.9-3.8 2.8-6 3.8-12.5 5.5-19 5.5z m109.2-535.2c-2.6 0-5.3 0.6-7.8 1.7-9.4 4.4-13.5 15.2-9.2 24.7 72.6 158.6 29.7 347.3-104.3 459-3.8 3.2-6.2 7.7-6.6 12.6-0.5 4.9 1 9.8 4.2 13.6 6 7.1 16.4 8.8 24.2 3.9 0.7-0.4 1.4-0.9 2-1.4 146.9-122.4 194-329.3 114.4-503.1-2.1-4.5-5.8-8-10.4-9.7-2.1-0.9-4.3-1.3-6.5-1.3zM511.9 818.5c-82.1 0-162.4-33.1-221.4-94.9-13.5-14.2-13-36.8 1.2-50.4l0.2-0.2c14.7-13.3 36.8-12.8 50.2 1.3 65.2 68.3 164.5 91 252.9 57.7 8.9-3.4 18.6-3.1 27.2 0.9 8.7 3.9 15.3 11 18.6 19.9 5.9 15.7-0.1 33.7-14.3 42.7-2 1.3-4.2 2.3-6.4 3.2-35.3 13.4-71.9 19.8-108.2 19.8zM303.4 685.7c-7.3 7.1-7.6 18.9-0.5 26.3 80.3 84.1 202.5 111.9 311.2 70.9 1.2-0.5 2.3-1 3.4-1.7 7.4-4.7 10.6-14.1 7.5-22.3-1.7-4.7-5.2-8.3-9.7-10.4-4.5-2.1-9.6-2.2-14.2-0.5-29 10.9-59.2 16.2-89 16.2-67.6 0-133.7-27.2-182.2-78.1-7.2-7.3-18.5-7.6-26.5-0.4z m396.4 57.4c-9.5 0-18.9-3.8-25.8-11-13.6-14.2-13.1-36.8 1.1-50.3 68.3-65.2 91-164.5 57.7-252.9-6.9-18.3 2.4-38.8 20.7-45.9 8.9-3.4 18.6-3.1 27.3 0.9 8.7 3.9 15.3 11 18.6 19.9 43.4 115.2 13.9 244.5-75.1 329.5-1.8 1.7-3.6 3.2-5.6 4.4-5.8 3.6-12.4 5.4-18.9 5.4z m66.4-345.4c-2.2 0-4.4 0.4-6.6 1.2-9.6 3.7-14.5 14.4-10.9 24 35.7 94.8 11.4 201.2-61.8 271.2-7.4 7.1-7.7 18.9-0.6 26.3 6.1 6.4 15.9 7.6 23.3 2.9 1-0.6 2-1.4 3-2.3 84.1-80.3 111.9-202.4 71-311.2-1.7-4.7-5.2-8.3-9.7-10.4-2.5-1.1-5.1-1.7-7.7-1.7zM142.3 716.2c-4.2 0-8.4-0.7-12.4-2.2-8.9-3.3-16-9.9-20-18.5C27.1 514.6 76 299.4 228.8 172.1c15.1-12.5 37.6-10.5 50.2 4.6 12.6 15.1 10.5 37.6-4.6 50.1C146.2 333.6 105.2 514 174.7 665.7c7.4 16.2 1.6 35.5-13.4 45-1.3 0.8-2.7 1.6-4.2 2.2-4.7 2.2-9.8 3.3-14.8 3.3z m109.4-535.4c-4.2 0-8.4 1.4-12 4.4-147 122.4-194 329.3-114.3 503.1 2.1 4.5 5.8 8 10.4 9.7 4.7 1.7 9.7 1.5 14.2-0.5 0.8-0.4 1.5-0.7 2.2-1.2 7.8-4.9 10.8-15 7-23.5-72.7-158.6-29.8-347.4 104.3-459 7.9-6.6 9-18.3 2.4-26.2-3.7-4.5-8.9-6.8-14.2-6.8z m260.4 502c-34.7 0-68.7-10.6-97.7-30.7-16.1-11.2-20.1-33.5-8.9-49.6 11.3-16.1 33.5-20 49.6-8.9 21.1 14.7 46.8 20.7 72.2 16.9 9.4-1.4 18.8 0.9 26.4 6.5 7.7 5.6 12.7 13.9 14.1 23.4 2.1 14-4.3 27.9-16.3 35.5-4.2 2.6-8.8 4.4-13.7 5.1-8.6 1.2-17.2 1.8-25.7 1.8z m-77.3-78.5c-5.9 0-11.8 2.8-15.4 8-5.8 8.4-3.7 20 4.7 25.9 32.6 22.6 72.1 31.9 111.3 25.9 2.6-0.4 4.9-1.3 7.1-2.6 6.3-4 9.6-11.2 8.5-18.5-0.7-4.9-3.3-9.3-7.3-12.2-4-2.9-8.9-4.2-13.8-3.4-29.8 4.5-59.8-2.5-84.5-19.7-3.3-2.4-7-3.4-10.6-3.4z m-176.4 38.3c-5 0-10-1.1-14.7-3.2-8.7-3.9-15.3-11-18.6-19.9C181.7 504.3 211.2 375 300.2 290c14.4-13.5 36.9-12.9 50.3 1.2 6.6 6.9 10.1 15.9 9.8 25.4-0.2 9.5-4.1 18.4-11 24.9-68.3 65.2-91 164.5-57.7 252.9 5.9 15.8-0.1 33.7-14.3 42.7-2 1.3-4.2 2.3-6.5 3.2-4 1.5-8.2 2.3-12.4 2.3z m66.5-345.5c-4.6 0-9.3 1.7-13 5.2-84 80.2-111.9 202.3-70.9 311.1 1.7 4.6 5.2 8.3 9.7 10.4 4.5 2.1 9.6 2.2 14.2 0.5 1.2-0.5 2.3-1 3.4-1.7 7.4-4.7 10.6-14.1 7.5-22.3-35.7-94.8-11.4-201.3 61.9-271.2 3.6-3.4 5.6-8.1 5.7-13 0.1-5-1.7-9.7-5.2-13.3-3.6-3.8-8.4-5.7-13.3-5.7z m298.6 327.7c-7.1 0-14.2-2.1-20.4-6.4-16.1-11.2-20.1-33.5-8.9-49.6 14.7-21.1 20.7-46.8 16.9-72.3-2.9-19.5 10.5-37.6 29.9-40.5 9.4-1.4 18.8 0.9 26.4 6.5 7.7 5.6 12.7 13.9 14.1 23.3 6.6 43.5-3.7 87.4-28.8 123.6-2.7 3.9-6.2 7.2-10.2 9.8-5.9 3.8-12.5 5.6-19 5.6z m22.9-152.1c-0.9 0-1.9 0.1-2.8 0.2-10.1 1.5-17.1 11-15.6 21.2 4.5 29.8-2.5 59.8-19.7 84.5-5.9 8.4-3.8 20 4.6 25.9 6.1 4.3 14.2 4.5 20.6 0.5 2.1-1.3 3.9-3.1 5.3-5.1 22.7-32.6 31.9-72.1 26-111.3-0.7-4.9-3.3-9.3-7.3-12.2-3.3-2.5-7.2-3.7-11.1-3.7z m-268.3 94.9c-7.6 0-14.9-2.4-21.1-7-7.7-5.7-12.6-13.9-14.1-23.4-6.5-43.5 3.7-87.4 28.9-123.5 5.4-7.8 13.6-13 23-14.7 9.4-1.7 18.8 0.4 26.6 5.9 16.1 11.2 20.1 33.5 8.8 49.6-14.7 21.1-20.7 46.8-16.9 72.2 2.1 14-4.3 27.9-16.3 35.4-4.2 2.6-8.8 4.4-13.7 5.1-1.6 0.2-3.4 0.4-5.2 0.4z m23.1-152.1c-1.1 0-2.2 0.1-3.3 0.3-4.9 0.9-9.2 3.6-12 7.7-22.7 32.5-31.9 72-26 111.3 0.7 4.9 3.3 9.3 7.3 12.2 4 3 8.9 4.2 13.8 3.4 2.6-0.4 4.9-1.3 7.1-2.6 6.3-3.9 9.6-11.2 8.5-18.5-4.5-29.8 2.5-59.8 19.7-84.5 5.9-8.4 3.8-20-4.6-25.9-3.1-2.3-6.8-3.4-10.5-3.4z m187.2 19.6c-7 0-14-2-20-6.1-20.9-14.2-46.2-19.9-71.2-16.1-19.4 2.9-37.6-10.5-40.5-29.9-1.4-9.4 0.9-18.9 6.6-26.5 5.6-7.6 14-12.6 23.4-14 42.7-6.4 86 3.4 121.7 27.6 16.2 11 20.5 33.2 9.5 49.5-2.8 4.1-6.3 7.5-10.5 10.1-5.8 3.5-12.4 5.4-19 5.4z m-76-40.4c23.3 0 46.1 6.9 65.7 20.2 6.1 4.1 14.1 4.3 20.4 0.3 2.2-1.4 4-3.2 5.5-5.3 5.8-8.5 3.5-20.1-4.9-25.9-32.2-21.8-71.1-30.7-109.7-24.9-5 0.7-9.3 3.3-12.2 7.3-3 4-4.2 8.9-3.4 13.9 1.5 10.2 11 17.2 21.2 15.7 5.6-0.9 11.5-1.3 17.4-1.3z m195.9-35c-9.5 0-18.9-3.8-25.8-11-65.3-68.4-164.7-91-253.3-57.5-4.1 1.6-8.4 2.3-12.5 2.3-14.4 0-28-8.8-33.4-23-6.8-18.1 2.4-38.7 20.6-45.9h0.1c115.3-43.6 244.9-14.2 330 74.9 13.5 14.2 13 36.8-1.2 50.4l-0.1 0.1c-1.8 1.7-3.7 3.1-5.6 4.3-5.7 3.7-12.3 5.4-18.8 5.4z m9.8-19.8l4.5 7.2-4.5-7.2c1-0.6 2-1.4 3-2.3 7.4-7.1 7.6-18.9 0.6-26.3-80.4-84.2-202.7-112-311.6-70.8-9.6 3.8-14.5 14.6-10.9 24 3.6 9.6 14.4 14.4 24 10.8 94.9-35.9 201.5-11.7 271.6 61.7 6.1 6.4 15.9 7.6 23.3 2.9z m106.5-53.4c-10.3 0-20.5-4.4-27.4-12.8C690.4 145.6 510 104.6 358.3 174.1c-8.7 4-18.3 4.3-27.2 1-8.9-3.3-16-9.9-20-18.5-8.2-17.8-0.3-39 17.5-47.2 180.8-82.8 396-34 523.3 118.8 6.1 7.3 9 16.5 8.1 26-0.9 9.5-5.4 18-12.7 24.1-1.3 1.1-2.6 2-3.8 2.8-5.9 3.6-12.4 5.4-18.9 5.4zM512 123.5c112.5 0 222.9 48.9 298.2 139.3 6 7.1 16.4 8.8 24.2 3.9 0.7-0.4 1.3-0.9 2-1.5 3.8-3.2 6.1-7.6 6.6-12.6 0.5-4.9-1-9.8-4.2-13.6C716.4 92.1 509.5 45.1 335.6 124.8c-9.5 4.3-13.5 15.2-9.2 24.7 2.1 4.5 5.8 7.9 10.4 9.7 4.7 1.7 9.7 1.5 14.3-0.5 51.7-23.8 106.6-35.2 160.9-35.2z" fill="" /></svg>